<svg width="30" height="30" viewBox="0 0 30 30" fill="none" xmlns="http://www.w3.org/2000/svg">
<circle cx="15" cy="15" r="15" fill="#EB596D"/>
<path fill-rule="evenodd" clip-rule="evenodd" d="M11.0826 11.0812C11.4243 10.7395 11.9783 10.7395 12.32 11.0812L15.0012 13.7623L17.6823 11.0812C18.024 10.7395 18.578 10.7395 18.9197 11.0812C19.2614 11.4229 19.2614 11.9769 18.9197 12.3186L16.2386 14.9998L18.9197 17.6809C19.2614 18.0226 19.2614 18.5766 18.9197 18.9183C18.578 19.26 18.024 19.26 17.6823 18.9183L15.0012 16.2372L12.32 18.9183C11.9783 19.26 11.4243 19.26 11.0826 18.9183C10.7409 18.5766 10.7409 18.0226 11.0826 17.6809L13.7637 14.9998L11.0826 12.3186C10.7409 11.9769 10.7409 11.4229 11.0826 11.0812Z" fill="white"/>
</svg>
