<svg width="22" height="20" viewBox="0 0 22 20" fill="none" xmlns="http://www.w3.org/2000/svg">
<path d="M11 4.5C13.76 4.5 16 6.74 16 9.5C16 10.15 15.87 10.76 15.64 11.33L18.56 14.25C20.07 12.99 21.26 11.36 21.99 9.5C20.26 5.11 15.99 2 10.99 2C9.59 2 8.25 2.25 7.01 2.7L9.17 4.86C9.74 4.63 10.35 4.5 11 4.5ZM1 1.77L3.28 4.05L3.74 4.51C2.08 5.8 0.78 7.52 0 9.5C1.73 13.89 6 17 11 17C12.55 17 14.03 16.7 15.38 16.16L15.8 16.58L18.73 19.5L20 18.23L2.27 0.5L1 1.77ZM6.53 7.3L8.08 8.85C8.03 9.06 8 9.28 8 9.5C8 11.16 9.34 12.5 11 12.5C11.22 12.5 11.44 12.47 11.65 12.42L13.2 13.97C12.53 14.3 11.79 14.5 11 14.5C8.24 14.5 6 12.26 6 9.5C6 8.71 6.2 7.97 6.53 7.3ZM10.84 6.52L13.99 9.67L14.01 9.51C14.01 7.85 12.67 6.51 11.01 6.51L10.84 6.52Z" fill="#96A5C4" fill-opacity="0.54"/>
</svg>
