<svg width="25" height="25" viewBox="0 0 25 25" fill="none" xmlns="http://www.w3.org/2000/svg">
<circle cx="12.5" cy="12.5" r="12" fill="white" stroke="#C4C4C4"/>
<path d="M17.4545 10.3636H16.8791C16.8026 10.3627 16.7282 10.3385 16.6657 10.2944C16.6032 10.2503 16.5555 10.1883 16.5289 10.1165C16.4999 10.0482 16.4918 9.97281 16.5057 9.89988C16.5196 9.82694 16.5548 9.75978 16.6069 9.70691L17.0138 9.3C17.1161 9.19771 17.1735 9.059 17.1735 8.91436C17.1735 8.76973 17.1161 8.63102 17.0138 8.52873L15.4713 6.98618C15.369 6.88392 15.2303 6.82648 15.0856 6.82648C14.941 6.82648 14.8023 6.88392 14.7 6.98618L14.2931 7.39309C14.238 7.44613 14.1682 7.48139 14.0929 7.49433C14.0175 7.50726 13.94 7.49727 13.8704 7.46564C13.8015 7.43797 13.7424 7.39039 13.7008 7.32898C13.6591 7.26757 13.6367 7.19513 13.6364 7.12091V6.54545C13.6364 6.40079 13.5789 6.26205 13.4766 6.15976C13.3743 6.05747 13.2356 6 13.0909 6H10.9091C10.7644 6 10.6257 6.05747 10.5234 6.15976C10.4211 6.26205 10.3636 6.40079 10.3636 6.54545V7.12091C10.3608 7.19544 10.3367 7.2676 10.2942 7.32885C10.2516 7.39011 10.1924 7.43791 10.1236 7.4666C10.0547 7.49528 9.97912 7.50365 9.90567 7.49073C9.83222 7.4778 9.764 7.44411 9.70909 7.39364L9.3 6.98618C9.19771 6.88392 9.059 6.82648 8.91436 6.82648C8.76973 6.82648 8.63102 6.88392 8.52873 6.98618L6.98618 8.52873C6.88392 8.63102 6.82648 8.76973 6.82648 8.91436C6.82648 9.059 6.88392 9.19771 6.98618 9.3L7.39309 9.70691C7.44613 9.762 7.48139 9.83175 7.49433 9.90712C7.50726 9.98249 7.49727 10.06 7.46564 10.1296C7.43797 10.1985 7.39039 10.2576 7.32898 10.2992C7.26757 10.3409 7.19513 10.3633 7.12091 10.3636H6.54545C6.40079 10.3636 6.26205 10.4211 6.15976 10.5234C6.05747 10.6257 6 10.7644 6 10.9091V13.0909C6 13.2356 6.05747 13.3743 6.15976 13.4766C6.26205 13.5789 6.40079 13.6364 6.54545 13.6364H7.12091C7.19741 13.6373 7.27182 13.6615 7.33434 13.7056C7.39685 13.7497 7.44453 13.8117 7.47109 13.8835C7.50013 13.9518 7.50822 14.0272 7.49433 14.1001C7.48045 14.1731 7.44521 14.2402 7.39309 14.2931L6.98618 14.7C6.88392 14.8023 6.82648 14.941 6.82648 15.0856C6.82648 15.2303 6.88392 15.369 6.98618 15.4713L8.52873 17.0138C8.63102 17.1161 8.76973 17.1735 8.91436 17.1735C9.059 17.1735 9.19771 17.1161 9.3 17.0138L9.70691 16.6069C9.762 16.5539 9.83175 16.5186 9.90712 16.5057C9.98249 16.4927 10.06 16.5027 10.1296 16.5344C10.1985 16.562 10.2576 16.6096 10.2992 16.671C10.3409 16.7324 10.3633 16.8049 10.3636 16.8791V17.4545C10.3636 17.5992 10.4211 17.7379 10.5234 17.8402C10.6257 17.9425 10.7644 18 10.9091 18H13.0909C13.2356 18 13.3743 17.9425 13.4766 17.8402C13.5789 17.7379 13.6364 17.5992 13.6364 17.4545V16.8791C13.6373 16.8026 13.6615 16.7282 13.7056 16.6657C13.7497 16.6032 13.8117 16.5555 13.8835 16.5289C13.9518 16.4999 14.0272 16.4918 14.1001 16.5057C14.1731 16.5196 14.2402 16.5548 14.2931 16.6069L14.7 17.0138C14.8023 17.1161 14.941 17.1735 15.0856 17.1735C15.2303 17.1735 15.369 17.1161 15.4713 17.0138L17.0138 15.4713C17.1161 15.369 17.1735 15.2303 17.1735 15.0856C17.1735 14.941 17.1161 14.8023 17.0138 14.7L16.6069 14.2931C16.5539 14.238 16.5186 14.1682 16.5057 14.0929C16.4927 14.0175 16.5027 13.94 16.5344 13.8704C16.562 13.8015 16.6096 13.7424 16.671 13.7008C16.7324 13.6591 16.8049 13.6367 16.8791 13.6364H17.4545C17.5992 13.6364 17.7379 13.5789 17.8402 13.4766C17.9425 13.3743 18 13.2356 18 13.0909V10.9091C18 10.7644 17.9425 10.6257 17.8402 10.5234C17.7379 10.4211 17.5992 10.3636 17.4545 10.3636ZM16.9091 12.5455H16.8791C16.5885 12.5482 16.3051 12.6364 16.0643 12.799C15.8234 12.9615 15.6357 13.1914 15.5244 13.4599C15.4132 13.7284 15.3834 14.0236 15.4388 14.3089C15.4941 14.5942 15.6321 14.8569 15.8356 15.0644L15.8569 15.0856L15.0856 15.8569L15.0644 15.8356C14.857 15.6319 14.5943 15.4936 14.3089 15.4381C14.0235 15.3827 13.7281 15.4124 13.4595 15.5237C13.191 15.6349 12.9611 15.8228 12.7985 16.0638C12.636 16.3048 12.548 16.5884 12.5455 16.8791V16.9091H11.4545V16.8791C11.4518 16.5885 11.3636 16.3051 11.201 16.0643C11.0385 15.8234 10.8086 15.6357 10.5401 15.5244C10.2716 15.4132 9.97638 15.3834 9.69109 15.4388C9.40579 15.4941 9.14308 15.6321 8.93564 15.8356L8.91436 15.8569L8.14309 15.0856L8.16436 15.0644C8.36815 14.857 8.50639 14.5943 8.56187 14.3089C8.61735 14.0235 8.5876 13.7281 8.47634 13.4595C8.36508 13.191 8.17722 12.9611 7.93619 12.7985C7.69516 12.636 7.41162 12.548 7.12091 12.5455H7.09091V11.4545H7.12091C7.4115 11.4518 7.69487 11.3636 7.93574 11.201C8.17661 11.0385 8.36434 10.8086 8.47556 10.5401C8.58677 10.2716 8.61657 9.97638 8.56124 9.69109C8.50591 9.40579 8.36789 9.14308 8.16436 8.93564L8.14309 8.91436L8.91436 8.14309L8.93564 8.16436C9.14298 8.36815 9.40572 8.50639 9.69109 8.56187C9.97647 8.61735 10.2719 8.5876 10.5405 8.47634C10.809 8.36508 11.0389 8.17722 11.2015 7.93619C11.364 7.69516 11.452 7.41162 11.4545 7.12091V7.09091H12.5455V7.12091C12.5482 7.4115 12.6364 7.69487 12.799 7.93574C12.9615 8.17661 13.1914 8.36434 13.4599 8.47556C13.7284 8.58677 14.0236 8.61657 14.3089 8.56124C14.5942 8.50591 14.8569 8.36789 15.0644 8.16436L15.0856 8.14309L15.8569 8.91436L15.8356 8.93564C15.6319 9.14298 15.4936 9.40572 15.4381 9.69109C15.3827 9.97647 15.4124 10.2719 15.5237 10.5405C15.6349 10.809 15.8228 11.0389 16.0638 11.2015C16.3048 11.364 16.5884 11.452 16.8791 11.4545H16.9091V12.5455Z" fill="#3FC429"/>
</svg>
