<svg width="25" height="25" viewBox="0 0 25 25" fill="none" xmlns="http://www.w3.org/2000/svg">
<circle cx="12.5" cy="12.5" r="12" fill="white" stroke="#C4C4C4"/>
<path d="M6 16.5358H10.2679V17.7552H6V16.5358ZM6 12.2679H11.4873V13.4873H6V12.2679ZM6 8H18.194V9.2194H6V8ZM17.3855 13.5025L18.0903 13.2641L18.7 14.3201L18.1415 14.8109C18.2118 15.1442 18.2118 15.4885 18.1415 15.8218L18.7 16.3126L18.0903 17.3686L17.3855 17.1302C17.1355 17.3558 16.838 17.5296 16.5106 17.6363L16.3649 18.3649H15.1455L14.9991 17.6357C14.6755 17.5299 14.3777 17.3575 14.1248 17.1296L13.42 17.3686L12.8103 16.3126L13.3688 15.8218C13.2985 15.4885 13.2985 15.1442 13.3688 14.8109L12.8103 14.3201L13.42 13.2641L14.1248 13.5025C14.3748 13.2769 14.6723 13.1032 14.9997 12.9965L15.1455 12.2679H16.3649L16.5112 12.9971C16.838 13.1032 17.1355 13.2775 17.3855 13.5031V13.5025ZM15.7552 16.5358C16.0786 16.5358 16.3887 16.4073 16.6174 16.1786C16.8461 15.9499 16.9746 15.6398 16.9746 15.3164C16.9746 14.993 16.8461 14.6828 16.6174 14.4541C16.3887 14.2254 16.0786 14.097 15.7552 14.097C15.4318 14.097 15.1216 14.2254 14.8929 14.4541C14.6642 14.6828 14.5358 14.993 14.5358 15.3164C14.5358 15.6398 14.6642 15.9499 14.8929 16.1786C15.1216 16.4073 15.4318 16.5358 15.7552 16.5358V16.5358Z" fill="#B07CC5"/>
</svg>
