<svg width="25" height="25" viewBox="0 0 25 25" fill="none" xmlns="http://www.w3.org/2000/svg">
<circle cx="12.5" cy="12.5" r="12" fill="white" stroke="#C4C4C4"/>
<path fill-rule="evenodd" clip-rule="evenodd" d="M11.0677 8.26725C10.3678 8.26725 9.80045 8.83462 9.80045 9.5345C9.80045 10.2344 10.3678 10.8018 11.0677 10.8018C11.7676 10.8018 12.335 10.2344 12.335 9.5345C12.335 8.83462 11.7676 8.26725 11.0677 8.26725ZM8.5332 9.5345C8.5332 8.13474 9.66794 7 11.0677 7C12.4675 7 13.6022 8.13474 13.6022 9.5345C13.6022 10.9343 12.4675 12.069 11.0677 12.069C9.66794 12.069 8.5332 10.9343 8.5332 9.5345Z" fill="#6554BE"/>
<path fill-rule="evenodd" clip-rule="evenodd" d="M9.16813 14.604C8.1183 14.604 7.26725 15.4551 7.26725 16.5049V17.7722C7.26725 18.1221 6.98357 18.4058 6.63363 18.4058C6.28368 18.4058 6 18.1221 6 17.7722V16.5049C6 14.7552 7.41842 13.3368 9.16813 13.3368H12.9699C14.7196 13.3368 16.138 14.7552 16.138 16.5049V17.7722C16.138 18.1221 15.8543 18.4058 15.5044 18.4058C15.1544 18.4058 14.8708 18.1221 14.8708 17.7722V16.5049C14.8708 15.4551 14.0197 14.604 12.9699 14.604H9.16813Z" fill="#6554BE"/>
<path d="M17.403 17.7724C17.403 18.1223 17.6867 18.406 18.0366 18.406C18.3866 18.406 18.6703 18.1223 18.6703 17.7724V16.5051C18.6703 14.8196 17.354 13.4415 15.6934 13.3427C16.36 13.933 16.87 14.6963 17.1531 15.5623C17.3121 15.8401 17.403 16.162 17.403 16.5051V17.7724Z" fill="#6554BE"/>
<path d="M13.9219 12.0497C15.1722 11.8939 16.1398 10.8274 16.1398 9.53482C16.1398 8.24227 15.1722 7.17571 13.9219 7.0199C14.5135 7.69011 14.8725 8.57054 14.8725 9.53482C14.8725 10.4991 14.5135 11.3795 13.9219 12.0497Z" fill="#6554BE"/>
</svg>
