<svg width="25" height="25" viewBox="0 0 25 25" fill="none" xmlns="http://www.w3.org/2000/svg">
<circle cx="12.5" cy="12.5" r="12" fill="white" stroke="#C4C4C4"/>
<path d="M6.11523 8.57414C6.11523 9.04094 6.25583 9.49725 6.51925 9.88537C6.78266 10.2735 7.15706 10.576 7.5951 10.7546C8.03314 10.9333 8.51515 10.98 8.98017 10.8889C9.4452 10.7979 9.87235 10.5731 10.2076 10.243C10.5429 9.91295 10.7712 9.49241 10.8637 9.03459C10.9562 8.57676 10.9087 8.10221 10.7273 7.67095C10.5458 7.23969 10.2386 6.87108 9.84434 6.61175C9.45011 6.35241 8.98663 6.21399 8.51249 6.21399C7.8767 6.21399 7.26695 6.46265 6.81737 6.90526C6.3678 7.34788 6.11523 7.94819 6.11523 8.57414ZM9.60216 8.57414C9.60216 8.78632 9.53825 8.99374 9.41851 9.17016C9.29878 9.34658 9.1286 9.48408 8.92949 9.56528C8.73038 9.64648 8.51128 9.66772 8.29991 9.62633C8.08854 9.58493 7.89438 9.48276 7.74198 9.33273C7.58959 9.18269 7.48581 8.99154 7.44377 8.78344C7.40172 8.57533 7.4233 8.35963 7.50578 8.1636C7.58825 7.96757 7.72791 7.80003 7.90711 7.68214C8.0863 7.56426 8.29698 7.50135 8.51249 7.50135C8.80149 7.50135 9.07865 7.61437 9.283 7.81556C9.48735 8.01675 9.60216 8.28962 9.60216 8.57414Z" fill="#F09E4E"/>
<path d="M17.8844 16.1376C17.8844 15.6708 17.7438 15.2145 17.4804 14.8264C17.2169 14.4383 16.8425 14.1358 16.4045 13.9571C15.9665 13.7785 15.4844 13.7317 15.0194 13.8228C14.5544 13.9139 14.1272 14.1387 13.792 14.4687C13.4567 14.7988 13.2284 15.2194 13.1359 15.6772C13.0434 16.135 13.0909 16.6096 13.2723 17.0408C13.4538 17.4721 13.761 17.8407 14.1553 18.1C14.5495 18.3594 15.013 18.4978 15.4871 18.4978C16.1229 18.4978 16.7326 18.2491 17.1822 17.8065C17.6318 17.3639 17.8844 16.7636 17.8844 16.1376ZM14.3974 16.1376C14.3974 15.9254 14.4613 15.718 14.5811 15.5416C14.7008 15.3652 14.871 15.2277 15.0701 15.1465C15.2692 15.0653 15.4883 15.044 15.6997 15.0854C15.9111 15.1268 16.1052 15.229 16.2576 15.379C16.41 15.5291 16.5138 15.7202 16.5558 15.9283C16.5979 16.1364 16.5763 16.3521 16.4938 16.5482C16.4113 16.7442 16.2717 16.9117 16.0925 17.0296C15.9133 17.1475 15.7026 17.2104 15.4871 17.2104C15.1981 17.2104 14.9209 17.0974 14.7166 16.8962C14.5122 16.695 14.3974 16.4221 14.3974 16.1376Z" fill="#F09E4E"/>
<path d="M7.20548 14.6877V16.9964C7.20548 17.4516 7.38916 17.8882 7.71613 18.2101C8.04309 18.532 8.48654 18.7129 8.94894 18.7129H12V17.4255H8.94894C8.83334 17.4255 8.72247 17.3803 8.64073 17.2998C8.55899 17.2194 8.51307 17.1102 8.51307 16.9964V14.6877L9.79452 15.9493L10.7185 15.0396L8.32129 12.6795C8.1987 12.5589 8.03253 12.4912 7.85928 12.4912C7.68602 12.4912 7.51985 12.5589 7.39726 12.6795L5 15.0396L5.92403 15.9493L7.20548 14.6877Z" fill="#F09E4E"/>
<path d="M16.7945 10.0251V7.71648C16.7945 7.26124 16.6108 6.82465 16.2839 6.50274C15.9569 6.18084 15.5134 6 15.0511 6H12V7.28736H15.0511C15.1667 7.28736 15.2775 7.33257 15.3593 7.41304C15.441 7.49352 15.4869 7.60267 15.4869 7.71648V10.0251L14.2055 8.76353L13.2814 9.67326L15.6787 12.0334C15.8013 12.154 15.9675 12.2217 16.1407 12.2217C16.314 12.2217 16.4801 12.154 16.6027 12.0334L19 9.67326L18.076 8.76353L16.7945 10.0251Z" fill="#F09E4E"/>
</svg>
