<svg width="91" height="94" viewBox="0 0 91 94" fill="none" xmlns="http://www.w3.org/2000/svg">
<g clip-path="url(#clip0_1_318)">
<path d="M50.8246 44.2475L37.8639 38.2595C37.4964 38.0746 37.0875 37.9878 36.6767 38.0074C36.266 38.0269 35.8672 38.1523 35.5188 38.3714C35.1704 38.5904 34.8841 38.8958 34.6876 39.258C34.4911 39.6202 34.3909 40.0271 34.3967 40.4394V52.4292C34.3991 52.8327 34.5024 53.2292 34.697 53.5824C34.8916 53.9356 35.1713 54.2343 35.5107 54.4511C35.8501 54.6679 36.2383 54.796 36.6397 54.8236C37.0412 54.8512 37.4432 54.7775 37.8089 54.6091L50.7696 48.6212C51.1867 48.4319 51.5413 48.1273 51.7919 47.7431C52.0425 47.3588 52.1787 46.9109 52.1845 46.4519C52.1903 45.9928 52.0654 45.5416 51.8246 45.1511C51.5837 44.7607 51.2368 44.4472 50.8246 44.2475Z" fill="#C81F44"/>
<path d="M45.1147 70.6138C41.3935 70.6092 37.726 69.7231 34.411 68.0277C31.0961 66.3324 28.2274 63.8756 26.0386 60.8578C23.8499 57.8399 22.4031 54.3461 21.8161 50.6613C21.229 46.9764 21.5184 43.2045 22.6606 39.653C23.7087 36.1809 25.571 33.0112 28.0917 30.409C30.6123 27.8069 33.7179 25.8482 37.1485 24.6969C42.0352 22.9714 47.3514 22.9008 52.282 24.4958C57.2127 26.0907 61.4856 29.2633 64.4457 33.5271C65.0735 34.4272 65.9099 35.1611 66.8828 35.6658C67.8558 36.1705 68.9363 36.4308 70.0317 36.4245H87.6566C87.9744 36.423 88.2877 36.3494 88.5731 36.2092C88.8584 36.0691 89.1084 35.8659 89.3043 35.615C89.5002 35.3641 89.637 35.072 89.7043 34.7606C89.7716 34.4492 89.7677 34.1265 89.6929 33.8168C88.3749 27.86 85.8764 22.2297 82.3458 17.2602C78.3889 11.7645 73.0993 7.37187 66.9773 4.49787C60.2666 1.41122 52.9507 -0.125839 45.5688 -2.08803e-06C37.1139 -0.206812 28.7564 1.84556 21.3535 5.94657C14.5594 9.81703 9.04807 15.6028 5.50346 22.5859C1.72568 30.1549 -0.162914 38.5306 -1.26865e-05 46.9931C-0.164599 55.4602 1.72402 63.8407 5.50346 71.4141C9.0407 78.3934 14.542 84.1787 21.326 88.0534C28.7288 92.1544 37.0864 94.2068 45.5413 94C52.9248 94.1281 60.2423 92.586 66.9498 89.4883C73.0706 86.6317 78.3611 82.2526 82.3183 76.7674C85.6615 72.0641 88.076 66.7626 89.4315 61.149C89.5324 60.7278 89.5378 60.2893 89.4474 59.8657C89.3569 59.4422 89.1729 59.0443 88.9089 58.7015C88.6449 58.3587 88.3076 58.0795 87.9218 57.8847C87.5361 57.6898 87.1116 57.5842 86.6798 57.5755H70.417C69.1974 57.5806 67.9965 57.8759 66.913 58.4372C65.8294 58.9985 64.8942 59.8097 64.1843 60.8041C62.0154 63.8449 59.1531 66.3217 55.8359 68.0281C52.5188 69.7345 48.8429 70.6211 45.1147 70.6138Z" fill="#231F20"/>
<path d="M60.8547 50.8011H58.6808C58.393 50.8042 58.1135 50.8977 57.8815 51.0685C57.6495 51.2393 57.4767 51.4787 57.3875 51.7531C57.2918 52.0387 57.1055 52.285 56.857 52.4544C56.6086 52.6238 56.3117 52.707 56.0116 52.6913H54.8559C54.6449 52.6758 54.4404 52.6118 54.2581 52.5041C54.0759 52.3964 53.9208 52.2481 53.805 52.0706C53.6892 51.8931 53.6158 51.6912 53.5904 51.4806C53.5651 51.27 53.5885 51.0563 53.6589 50.8563L57.2224 41.1017C57.32 40.8398 57.4946 40.6139 57.7231 40.4537C57.9516 40.2936 58.2232 40.2068 58.502 40.2049H61.0886C61.3697 40.204 61.6444 40.2894 61.8756 40.4498C62.1068 40.6101 62.2835 40.8376 62.3819 41.1017L65.9179 50.8563C65.9893 51.0606 66.0117 51.2788 65.9834 51.4934C65.955 51.708 65.8768 51.9129 65.7549 52.0915C65.633 52.2701 65.4709 52.4175 65.2817 52.5217C65.0926 52.6259 64.8816 52.684 64.6659 52.6913H63.4826C63.1965 52.6892 62.9182 52.5977 62.6864 52.4295C62.4546 52.2614 62.2808 52.0249 62.1893 51.7531C62.0979 51.472 61.9189 51.2277 61.6786 51.0563C61.4384 50.8849 61.1495 50.7954 60.8547 50.8011ZM60.8547 47.8623L59.7265 44.3854L58.5983 47.8623H60.8547Z" fill="#C81F44"/>
<path d="M77.0487 46.6344C76.6697 47.2892 76.1109 47.8208 75.4389 48.1659C74.6384 48.5557 73.7556 48.7451 72.866 48.7178H71.3526V51.3254C71.3526 51.6914 71.2076 52.0423 70.9496 52.301C70.6916 52.5598 70.3416 52.7051 69.9767 52.7051H68.7935C68.4286 52.7051 68.0786 52.5598 67.8206 52.301C67.5626 52.0423 67.4176 51.6914 67.4176 51.3254V41.5708C67.4176 41.2049 67.5626 40.854 67.8206 40.5952C68.0786 40.3365 68.4286 40.1911 68.7935 40.1911H72.9211C74.1966 40.1035 75.4557 40.5194 76.4295 41.3501C76.8409 41.7571 77.1625 42.2462 77.3734 42.7857C77.5844 43.3252 77.68 43.9031 77.6541 44.482C77.653 45.2416 77.4436 45.9862 77.0487 46.6344ZM73.6365 44.4958C73.6365 43.7232 73.2375 43.3369 72.4258 43.3369H71.3113V45.641H72.4258C73.2788 45.641 73.6778 45.2547 73.6778 44.4958H73.6365Z" fill="#C81F44"/>
<path d="M85.868 50.8011H83.6941C83.4064 50.8042 83.1268 50.8977 82.8948 51.0685C82.6628 51.2393 82.49 51.4787 82.4008 51.7531C82.3051 52.0387 82.1188 52.285 81.8703 52.4544C81.6219 52.6238 81.325 52.707 81.0249 52.6913H79.938C79.7199 52.6883 79.5057 52.6333 79.313 52.5309C79.1203 52.4285 78.9546 52.2816 78.8296 52.1024C78.7047 51.9232 78.624 51.7167 78.5942 51.5C78.5644 51.2834 78.5865 51.0627 78.6585 50.8563L82.222 41.1017C82.3195 40.8398 82.4941 40.6139 82.7226 40.4537C82.9511 40.2936 83.2227 40.2068 83.5015 40.2049H86.1019C86.3807 40.2068 86.6523 40.2936 86.8808 40.4537C87.1093 40.6139 87.2839 40.8398 87.3815 41.1017L90.9175 50.8563C90.9894 51.0627 91.0115 51.2834 90.9817 51.5C90.9519 51.7167 90.8712 51.9232 90.7463 52.1024C90.6213 52.2816 90.4556 52.4285 90.2629 52.5309C90.0702 52.6333 89.856 52.6883 89.6379 52.6913H88.4684C88.18 52.6921 87.8986 52.6019 87.664 52.4335C87.4295 52.2652 87.2536 52.0272 87.1613 51.7531C87.0721 51.4787 86.8994 51.2393 86.6674 51.0685C86.4354 50.8977 86.1558 50.8042 85.868 50.8011ZM85.868 47.8623L84.7398 44.3854L83.6116 47.8623H85.868Z" fill="#C81F44"/>
</g>
<defs>
<clipPath id="clip0_1_318">
<rect width="91" height="94" fill="white"/>
</clipPath>
</defs>
</svg>
